<?xml version="1.0" encoding="utf-8"?>
<!-- Generator: Adobe Illustrator 22.0.1, SVG Export Plug-In . SVG Version: 6.00 Build 0)  -->
<svg version="1.1" id="a" xmlns="http://www.w3.org/2000/svg" xmlns:xlink="http://www.w3.org/1999/xlink" x="0px" y="0px"
	 viewBox="0 0 286.6 34.4" style="enable-background:new 0 0 286.6 34.4;" xml:space="preserve">
<style type="text/css">
	.st0{fill:#73ACDD;}
	.st1{fill:#0D3050;}
</style>
<g>
	<g>
		<g>
			<path class="st0" d="M106,0.9h5.8v25.9H106V0.9z"/>
			<path class="st0" d="M143.8,13.7c0,2.7-0.7,5.1-2.1,7.3c-1.4,2.2-3.2,3.8-5.5,4.8c0.2,0.4,0.6,0.7,1.1,0.9s1,0.4,1.5,0.4
				s1-0.1,1.5-0.2c0.5-0.2,0.9-0.3,1.2-0.6c0.6-0.5,1.1-1,1.4-1.5l3,3.6c-2.1,2.3-4.8,3.4-8,3.4c-1.5,0-2.9-0.4-4.4-1.2
				s-2.5-2-3.3-3.4c-3.8,0-7.1-1.3-9.7-3.8s-3.9-5.7-3.9-9.5s1.3-7,3.9-9.5c2.6-2.6,5.8-3.8,9.7-3.8c3.8,0,7.1,1.3,9.7,3.8
				C142.6,6.7,143.9,9.9,143.8,13.7L143.8,13.7z M138,13.7c0-2.3-0.7-4.3-2.2-5.9s-3.3-2.4-5.5-2.4s-4,0.8-5.5,2.4s-2.2,3.6-2.2,5.9
				s0.7,4.3,2.2,5.9s3.3,2.4,5.5,2.4s4-0.8,5.5-2.4C137.2,18,138,16,138,13.7z"/>
		</g>
		<path class="st0" d="M145.7,0c1.5,0,2.6,1.2,2.6,2.7s-1.2,2.7-2.6,2.7s-2.6-1.2-2.6-2.7S144.3,0,145.7,0z M145.7,4.8
			c1.2,0,2.1-1,2.1-2.2s-0.9-2.2-2.1-2.2s-2.1,0.9-2.1,2.2S144.6,4.8,145.7,4.8z M144.9,1.3h1.1c0.5,0,0.9,0.3,0.9,0.8
			c0,0.4-0.3,0.7-0.5,0.7l0,0c0,0,0,0,0.1,0.2l0.5,1h-0.6l-0.6-1h-0.4v1h-0.5L144.9,1.3L144.9,1.3z M145.8,2.6
			c0.3,0,0.4-0.2,0.4-0.5s-0.2-0.4-0.4-0.4h-0.4v0.9H145.8z"/>
	</g>
	<g>
		<path class="st1" d="M21,9.5c0,4.1-1.6,6.8-4.9,8l6.6,9.3h-7.1l-5.7-8.3h-4v8.3H0V0.9h9.8c4,0,6.9,0.7,8.6,2
			C20.1,4.3,21,6.5,21,9.5L21,9.5z M14,12.6c0.7-0.6,1.1-1.7,1.1-3s-0.4-2.4-1.1-3s-2-0.8-3.9-0.8H5.8v7.7H10
			C12,13.5,13.3,13.2,14,12.6L14,12.6z"/>
		<path class="st1" d="M43.6,23.9c-2.3,2.1-4.9,3.2-7.9,3.2s-5.5-0.9-7.5-2.8s-3-4.4-3-7.5s1-5.6,3-7.5s4.4-2.8,7.1-2.8
			c2.7,0,5.1,0.8,7,2.5c1.9,1.6,2.9,3.9,2.9,6.8v3H30.7c0.2,1.1,0.7,2,1.7,2.7s2,1,3.3,1c2,0,3.6-0.7,4.8-2L43.6,23.9L43.6,23.9z
			 M38.3,12.1c-0.8-0.6-1.7-1-2.8-1s-2.1,0.3-3,1c-0.9,0.7-1.4,1.6-1.6,2.7h8.7C39.5,13.6,39,12.7,38.3,12.1L38.3,12.1z"/>
		<path class="st1" d="M54.8,15.7v11.1h-5.5V6.9h5.5v2.2c1.7-1.7,3.6-2.5,5.7-2.5s3.9,0.7,5.3,2.2s2.1,3.5,2.1,5.9v12.1h-5.6V15.5
			c0-3.1-1.1-4.6-3.4-4.6c-1.1,0-2.1,0.4-2.9,1.2C55.2,12.9,54.8,14.1,54.8,15.7L54.8,15.7z"/>
		<path class="st1" d="M89.8,26.8h-5.2v-2.4c-1.4,1.8-3.2,2.7-5.3,2.7s-3.9-0.6-5.3-1.8s-2.2-2.8-2.2-4.9s0.7-3.6,2.2-4.6
			s3.5-1.5,6.1-1.5h4.2v-0.1c0-2.1-1.1-3.2-3.4-3.2c-1,0-2,0.2-3.1,0.6s-2,0.9-2.7,1.4l-2.5-3.6c2.6-1.9,5.6-2.9,9-2.9
			c2.4,0,4.4,0.6,5.9,1.8s2.3,3.1,2.3,5.7V26.8L89.8,26.8z M84.2,19.2v-1h-3.5c-2.2,0-3.3,0.7-3.3,2.1c0,0.7,0.3,1.3,0.8,1.7
			c0.5,0.4,1.3,0.6,2.3,0.6s1.9-0.3,2.6-0.9C83.8,21,84.2,20.2,84.2,19.2L84.2,19.2z"/>
		<path class="st1" d="M94.6,21.1V0.9h5.4v20.4c0,1.2,0.5,1.5,1,1.5c0.2,0,0.4,0,0.7-0.1l0.7,4c-0.6,0.3-1.5,0.5-2.7,0.5
			C95.9,27.2,94.6,24.8,94.6,21.1L94.6,21.1z"/>
	</g>
	<g>
		<path class="st0" d="M157.5,2.7h2.4v24.8h-2.4V2.7z"/>
		<path class="st0" d="M182.3,10.8c1.3,1.3,1.9,3.1,1.9,5.3v11.4h-2.4V16.6c0-1.7-0.5-3.1-1.4-4.1c-1-1-2.3-1.5-4.1-1.5
			c-1.9,0-3.4,0.6-4.6,1.8c-1.1,1.2-1.8,2.7-2,4.7v10h-2.4V8.9h2.4v4.3c0.6-1.4,1.6-2.5,2.8-3.3s2.8-1.1,4.5-1.1
			C179.2,8.8,181,9.5,182.3,10.8z"/>
		<path class="st0" d="M197.7,11.2c-0.9-0.3-1.7-0.4-2.6-0.4c-1.2,0-2.1,0.2-2.9,0.7c-0.7,0.5-1.1,1.1-1.1,2.1
			c0,0.6,0.2,1.2,0.6,1.6s0.9,0.7,1.5,1c0.6,0.3,1.4,0.5,2.4,0.8c1.3,0.4,2.3,0.8,3.1,1.1c0.8,0.4,1.5,0.9,2.1,1.6s0.9,1.6,0.9,2.8
			c0,1.7-0.6,3-1.9,3.8c-1.3,0.9-2.9,1.3-4.8,1.3c-1.4,0-2.6-0.2-3.9-0.7c-1.3-0.5-2.3-1.1-3.2-1.9l1-1.7c0.8,0.7,1.8,1.3,2.9,1.7
			s2.2,0.6,3.4,0.6c1.3,0,2.3-0.3,3.1-0.8s1.2-1.3,1.2-2.3c0-0.7-0.2-1.3-0.6-1.7c-0.4-0.4-0.9-0.8-1.5-1s-1.4-0.5-2.5-0.9
			c-1.3-0.4-2.3-0.7-3.1-1.1s-1.4-0.9-2-1.5c-0.6-0.7-0.8-1.5-0.8-2.6c0-1.6,0.6-2.9,1.8-3.7s2.7-1.2,4.6-1.2c1.1,0,2.1,0.1,3.1,0.4
			c1,0.3,1.9,0.7,2.7,1.2l-0.9,1.8C199.4,11.8,198.6,11.4,197.7,11.2L197.7,11.2z"/>
		<path class="st0" d="M208.8,2.4c0.3,0.3,0.5,0.7,0.5,1.2s-0.2,0.9-0.5,1.2s-0.7,0.5-1.1,0.5c-0.5,0-0.9-0.2-1.2-0.5S206,4,206,3.5
			s0.2-0.9,0.5-1.2s0.7-0.5,1.2-0.5S208.5,2,208.8,2.4L208.8,2.4z M206.4,8.9h2.4v18.6h-2.4V8.9L206.4,8.9z"/>
		<path class="st0" d="M231.8,8.9v16.6c0,1.8-0.4,3.4-1.1,4.7c-0.8,1.3-1.8,2.4-3.3,3.1s-3,1.1-4.9,1.1c-2.8,0-5.3-1-7.6-2.8
			l1.1-1.7c0.9,0.8,1.9,1.5,3,1.9c1,0.4,2.2,0.6,3.4,0.6c2.1,0,3.8-0.6,5.1-1.9s1.9-2.9,1.9-5v-3c-0.7,1.3-1.6,2.3-2.8,3
			s-2.6,1.1-4.3,1.1s-3.1-0.4-4.4-1.2s-2.3-1.8-3-3.2c-0.7-1.4-1.1-2.9-1.1-4.6s0.4-3.3,1.1-4.6s1.7-2.4,3-3.2s2.8-1.1,4.4-1.1
			s3,0.4,4.2,1.1c1.2,0.7,2.1,1.7,2.8,3.1v-4H231.8L231.8,8.9z M226.2,23.9c1-0.6,1.8-1.4,2.4-2.5s0.9-2.3,0.9-3.6
			c0-1.3-0.3-2.6-0.9-3.6c-0.6-1.1-1.4-1.9-2.4-2.5s-2.2-0.9-3.4-0.9s-2.4,0.3-3.4,0.9c-1,0.6-1.8,1.4-2.4,2.5s-0.9,2.3-0.9,3.6
			s0.3,2.5,0.9,3.6s1.4,1.9,2.4,2.5s2.2,0.9,3.5,0.9S225.2,24.5,226.2,23.9L226.2,23.9z"/>
		<path class="st0" d="M253.4,10.8c1.3,1.3,1.9,3.1,1.9,5.3v11.4h-2.4V16.6c0-1.7-0.5-3.1-1.5-4.1s-2.3-1.5-4-1.5
			c-2.1,0-3.7,0.7-4.8,2c-1.2,1.3-1.8,3.1-1.8,5.3v9.1h-2.4V1.2h2.4v12.1c1.2-2.9,3.7-4.4,7.4-4.5C250.4,8.8,252.1,9.5,253.4,10.8
			L253.4,10.8z"/>
		<path class="st0" d="M271,26.2c-1.3,0.9-2.6,1.3-4.1,1.4c-1.4,0-2.5-0.4-3.4-1.3c-0.8-0.9-1.2-2.2-1.2-3.9V11.3h-2.7V9.5h2.7V4.6
			h2.4v4.8h6v1.9h-6V22c0,2.3,0.9,3.4,2.5,3.4c1,0,2-0.3,3.1-1L271,26.2L271,26.2z"/>
		<path class="st0" d="M282.6,11.2c-0.9-0.3-1.7-0.4-2.6-0.4c-1.2,0-2.1,0.2-2.9,0.7c-0.7,0.5-1.1,1.1-1.1,2.1
			c0,0.6,0.2,1.2,0.6,1.6c0.4,0.4,0.9,0.7,1.5,1c0.6,0.3,1.4,0.5,2.4,0.8c1.3,0.4,2.3,0.8,3.1,1.1c0.8,0.4,1.5,0.9,2.1,1.6
			s0.9,1.6,0.9,2.8c0,1.7-0.6,3-1.9,3.8c-1.3,0.9-2.9,1.3-4.8,1.3c-1.4,0-2.6-0.2-3.9-0.7s-2.3-1.1-3.2-1.9l1-1.7
			c0.8,0.7,1.8,1.3,2.9,1.7c1.1,0.4,2.2,0.6,3.4,0.6c1.3,0,2.3-0.3,3.1-0.8s1.2-1.3,1.2-2.3c0-0.7-0.2-1.3-0.6-1.7s-0.9-0.8-1.5-1
			s-1.4-0.5-2.5-0.9c-1.3-0.4-2.3-0.7-3-1.1c-0.8-0.4-1.4-0.9-2-1.5c-0.5-0.7-0.8-1.5-0.8-2.6c0-1.6,0.6-2.9,1.8-3.7
			s2.7-1.2,4.6-1.2c1.1,0,2.1,0.1,3.1,0.4c1,0.3,1.9,0.7,2.7,1.2l-0.9,1.8C284.2,11.8,283.5,11.4,282.6,11.2L282.6,11.2z"/>
	</g>
</g>
</svg>
