<?xml version="1.0" encoding="utf-8"?>
<!-- Generator: Adobe Illustrator 22.0.1, SVG Export Plug-In . SVG Version: 6.00 Build 0)  -->
<svg version="1.1" id="a" xmlns="http://www.w3.org/2000/svg" xmlns:xlink="http://www.w3.org/1999/xlink" x="0px" y="0px"
	 viewBox="0 0 286.5 58.7" style="enable-background:new 0 0 286.5 58.7;" xml:space="preserve">
<style type="text/css">
	.st0{fill:#717071;}
	.st1{fill:#73ACDD;}
	.st2{fill:#0D3050;}
	.st3{clip-path:url(#SVGID_2_);}
	.st4{clip-path:url(#SVGID_4_);}
	.st5{clip-path:url(#SVGID_6_);}
</style>
<g>
	<g>
		<path class="st0" d="M69.8,46.4c0.7,0.6,1,1.4,1,2.5s-0.3,2-1,2.6c-0.7,0.6-1.7,0.9-2.9,0.9h-2.8v3.3h-1V45.5h3.8
			C68.2,45.5,69.1,45.8,69.8,46.4L69.8,46.4z M69.1,50.9c0.5-0.5,0.8-1.1,0.8-1.9s-0.3-1.5-0.8-1.9s-1.3-0.7-2.3-0.7h-2.7v5.1h2.7
			C67.8,51.6,68.6,51.4,69.1,50.9z"/>
		<path class="st0" d="M77.8,48.6c0.6,0.3,1.1,0.8,1.4,1.4c0.3,0.6,0.5,1.3,0.5,2s-0.2,1.4-0.5,2s-0.8,1.1-1.4,1.4s-1.3,0.5-2,0.5
			s-1.4-0.2-2-0.5c-0.6-0.3-1.1-0.8-1.4-1.4c-0.3-0.6-0.5-1.3-0.5-2s0.2-1.4,0.5-2s0.8-1,1.4-1.4c0.6-0.3,1.3-0.5,2-0.5
			S77.2,48.2,77.8,48.6z M74.3,49.3c-0.4,0.3-0.8,0.6-1,1.1s-0.4,1-0.4,1.6s0.1,1.1,0.4,1.6s0.6,0.8,1,1.1s0.9,0.4,1.5,0.4
			s1.1-0.1,1.5-0.4s0.8-0.6,1-1.1s0.4-1,0.4-1.6s-0.1-1.1-0.4-1.6c-0.2-0.5-0.6-0.8-1-1.1s-0.9-0.4-1.5-0.4S74.7,49.1,74.3,49.3z"/>
		<path class="st0" d="M80.2,48.1h1.1l2.4,6.7l2.3-6.7h1l2.3,6.7l2.3-6.7h1l-2.9,7.7h-1l-2.3-6.5l-2.3,6.5h-1L80.2,48.1z"/>
		<path class="st0" d="M99.6,49.2c0.6,0.8,0.9,1.8,0.9,3.1H94c0.1,0.8,0.4,1.5,0.9,2s1.2,0.8,2,0.8c0.5,0,0.9-0.1,1.4-0.3
			c0.4-0.2,0.8-0.4,1.1-0.8l0.6,0.6c-0.4,0.4-0.8,0.7-1.3,0.9s-1.1,0.3-1.7,0.3c-0.7,0-1.4-0.2-2-0.5c-0.6-0.3-1-0.8-1.4-1.4
			c-0.3-0.6-0.5-1.3-0.5-2s0.2-1.4,0.5-2c0.3-0.6,0.8-1,1.4-1.4s1.2-0.5,1.9-0.5C98,48.1,98.9,48.5,99.6,49.2L99.6,49.2z M99.6,51.5
			c-0.1-0.8-0.3-1.4-0.8-1.9c-0.5-0.5-1.1-0.7-1.9-0.7s-1.4,0.2-1.9,0.7c-0.5,0.5-0.8,1.1-0.9,1.9C94,51.5,99.6,51.5,99.6,51.5z"/>
		<path class="st0" d="M104.6,48.6c0.5-0.3,1-0.5,1.7-0.5V49c-0.8,0-1.5,0.2-2,0.7c-0.5,0.5-0.8,1.1-0.8,2v4.1h-1v-7.7h1v1.8
			C103.7,49.3,104.1,48.9,104.6,48.6L104.6,48.6z"/>
		<path class="st0" d="M113.6,49.2c0.6,0.8,0.9,1.8,0.9,3.1H108c0.1,0.8,0.4,1.5,0.9,2s1.2,0.8,2,0.8c0.5,0,0.9-0.1,1.4-0.3
			c0.4-0.2,0.8-0.4,1.1-0.8l0.6,0.6c-0.4,0.4-0.8,0.7-1.3,0.9s-1.1,0.3-1.7,0.3c-0.7,0-1.4-0.2-2-0.5c-0.6-0.3-1-0.8-1.4-1.4
			c-0.3-0.6-0.5-1.3-0.5-2s0.2-1.4,0.5-2c0.3-0.6,0.8-1,1.4-1.4s1.2-0.5,1.9-0.5C112.1,48.1,113,48.5,113.6,49.2L113.6,49.2z
			 M113.6,51.5c-0.1-0.8-0.3-1.4-0.8-1.9c-0.5-0.5-1.1-0.7-1.9-0.7s-1.4,0.2-1.9,0.7c-0.5,0.5-0.8,1.1-0.9,1.9
			C108,51.5,113.6,51.5,113.6,51.5z"/>
		<path class="st0" d="M123.5,44.9v10.9h-1v-1.8c-0.3,0.6-0.7,1-1.2,1.3c-0.5,0.3-1.1,0.5-1.9,0.5s-1.4-0.2-1.9-0.5s-1-0.8-1.3-1.4
			c-0.3-0.6-0.5-1.3-0.5-2s0.2-1.4,0.5-2c0.3-0.6,0.8-1,1.3-1.4c0.6-0.3,1.2-0.5,1.9-0.5s1.3,0.2,1.9,0.5c0.5,0.3,0.9,0.8,1.2,1.3
			v-5H123.5L123.5,44.9z M121.1,54.6c0.4-0.3,0.8-0.6,1-1.1s0.4-1,0.4-1.6s-0.1-1.1-0.4-1.6c-0.3-0.5-0.6-0.8-1-1.1
			c-0.4-0.3-0.9-0.4-1.5-0.4s-1.1,0.1-1.5,0.4c-0.4,0.3-0.8,0.6-1,1.1s-0.4,1-0.4,1.6s0.1,1.1,0.4,1.6s0.6,0.8,1,1.1
			c0.4,0.3,0.9,0.4,1.5,0.4S120.7,54.9,121.1,54.6L121.1,54.6z"/>
		<path class="st0" d="M136.6,48.6c0.6,0.3,1,0.8,1.3,1.4s0.5,1.3,0.5,2s-0.2,1.4-0.5,2s-0.8,1-1.3,1.4s-1.2,0.5-1.9,0.5
			s-1.3-0.2-1.9-0.5s-0.9-0.8-1.2-1.3v1.8h-1V44.9h1v5c0.3-0.6,0.7-1,1.2-1.3c0.5-0.3,1.1-0.5,1.8-0.5S136,48.2,136.6,48.6
			L136.6,48.6z M135.9,54.6c0.4-0.3,0.8-0.6,1-1.1s0.4-1,0.4-1.6s-0.1-1.1-0.4-1.6s-0.6-0.8-1-1.1c-0.4-0.3-0.9-0.4-1.5-0.4
			s-1.1,0.1-1.5,0.4c-0.4,0.3-0.8,0.6-1,1.1c-0.3,0.5-0.4,1-0.4,1.6s0.1,1.1,0.4,1.6c0.2,0.5,0.6,0.8,1,1.1s0.9,0.4,1.5,0.4
			S135.5,54.9,135.9,54.6L135.9,54.6z"/>
		<path class="st0" d="M141.5,58.3c-0.4,0.3-0.8,0.5-1.3,0.5c-0.6,0-1.1-0.2-1.6-0.5l0.4-0.8c0.3,0.2,0.7,0.3,1.1,0.3
			c0.3,0,0.6-0.1,0.9-0.3s0.5-0.5,0.6-0.9l0.3-0.8l-3.2-7.7h1l2.6,6.6l2.5-6.6h1l-3.6,8.8C142.2,57.5,141.9,57.9,141.5,58.3
			L141.5,58.3z"/>
	</g>
	<g>
		<g>
			<g>
				<path class="st1" d="M106,0.9h5.8v25.9H106V0.9z"/>
				<path class="st1" d="M143.8,13.7c0,2.7-0.7,5.1-2.1,7.3c-1.4,2.2-3.2,3.8-5.5,4.8c0.2,0.4,0.6,0.7,1.1,0.9s1,0.4,1.5,0.4
					s1-0.1,1.5-0.2c0.5-0.2,0.9-0.3,1.2-0.6c0.6-0.5,1.1-1,1.4-1.5l3,3.6c-2.1,2.3-4.8,3.4-8,3.4c-1.5,0-2.9-0.4-4.4-1.2
					s-2.5-2-3.3-3.4c-3.8,0-7.1-1.3-9.7-3.8c-2.6-2.5-3.9-5.7-3.9-9.5s1.3-7,3.9-9.5c2.6-2.6,5.8-3.8,9.7-3.8c3.8,0,7.1,1.3,9.7,3.8
					C142.6,6.7,143.9,9.9,143.8,13.7L143.8,13.7z M138,13.7c0-2.3-0.7-4.3-2.2-5.9c-1.5-1.6-3.3-2.4-5.5-2.4s-4,0.8-5.5,2.4
					c-1.5,1.6-2.2,3.6-2.2,5.9s0.7,4.3,2.2,5.9s3.3,2.4,5.5,2.4s4-0.8,5.5-2.4C137.2,18,138,16,138,13.7z"/>
			</g>
			<path class="st1" d="M145.7,0c1.5,0,2.6,1.2,2.6,2.7s-1.2,2.7-2.6,2.7s-2.6-1.2-2.6-2.7S144.3,0,145.7,0z M145.7,4.8
				c1.2,0,2.1-1,2.1-2.2s-0.9-2.2-2.1-2.2s-2.1,0.9-2.1,2.2S144.6,4.8,145.7,4.8z M144.9,1.3h1.1c0.5,0,0.9,0.3,0.9,0.8
				c0,0.4-0.3,0.7-0.5,0.7l0,0c0,0,0,0,0.1,0.2l0.5,1h-0.6L145.8,3h-0.4V4h-0.5L144.9,1.3L144.9,1.3z M145.8,2.6
				c0.3,0,0.4-0.2,0.4-0.5s-0.2-0.4-0.4-0.4h-0.4v0.9H145.8z"/>
		</g>
		<g>
			<path class="st2" d="M21,9.5c0,4.1-1.6,6.8-4.9,8l6.6,9.3h-7.1l-5.7-8.3h-4v8.3H0V0.9h9.8c4,0,6.9,0.7,8.6,2
				C20.1,4.3,21,6.5,21,9.5L21,9.5z M14,12.6c0.7-0.6,1.1-1.7,1.1-3S14.7,7.2,14,6.6s-2-0.8-3.9-0.8H5.8v7.7H10
				C12,13.5,13.3,13.2,14,12.6L14,12.6z"/>
			<path class="st2" d="M43.6,23.9c-2.3,2.1-4.9,3.2-7.9,3.2c-3,0-5.5-0.9-7.5-2.8c-2-1.9-3-4.4-3-7.5s1-5.6,3-7.5
				c2-1.9,4.4-2.8,7.1-2.8c2.7,0,5.1,0.8,7,2.5c1.9,1.6,2.9,3.9,2.9,6.8v3H30.7c0.2,1.1,0.7,2,1.7,2.7c1,0.7,2,1,3.3,1
				c2,0,3.6-0.7,4.8-2L43.6,23.9L43.6,23.9z M38.3,12.1c-0.8-0.6-1.7-1-2.8-1c-1.1,0-2.1,0.3-3,1c-0.9,0.7-1.4,1.6-1.6,2.7h8.7
				C39.5,13.6,39,12.7,38.3,12.1L38.3,12.1z"/>
			<path class="st2" d="M54.8,15.7v11.1h-5.5V6.9h5.5v2.2c1.7-1.7,3.6-2.5,5.7-2.5s3.9,0.7,5.3,2.2c1.4,1.5,2.1,3.5,2.1,5.9v12.1
				h-5.6V15.5c0-3.1-1.1-4.6-3.4-4.6c-1.1,0-2.1,0.4-2.9,1.2C55.2,12.9,54.8,14.1,54.8,15.7L54.8,15.7z"/>
			<path class="st2" d="M89.8,26.8h-5.2v-2.4c-1.4,1.8-3.2,2.7-5.3,2.7s-3.9-0.6-5.3-1.8s-2.2-2.8-2.2-4.9s0.7-3.6,2.2-4.6
				s3.5-1.5,6.1-1.5h4.2v-0.1c0-2.1-1.1-3.2-3.4-3.2c-1,0-2,0.2-3.1,0.6s-2,0.9-2.7,1.4l-2.5-3.6c2.6-1.9,5.6-2.9,9-2.9
				c2.4,0,4.4,0.6,5.9,1.8c1.5,1.2,2.3,3.1,2.3,5.7L89.8,26.8L89.8,26.8z M84.2,19.2v-1h-3.5c-2.2,0-3.3,0.7-3.3,2.1
				c0,0.7,0.3,1.3,0.8,1.7c0.5,0.4,1.3,0.6,2.3,0.6s1.9-0.3,2.6-0.9C83.8,21,84.2,20.2,84.2,19.2L84.2,19.2z"/>
			<path class="st2" d="M94.6,21.1V0.9h5.4v20.4c0,1.2,0.5,1.5,1,1.5c0.2,0,0.4,0,0.7-0.1l0.7,4c-0.6,0.3-1.5,0.5-2.7,0.5
				C95.9,27.2,94.6,24.8,94.6,21.1L94.6,21.1z"/>
		</g>
		<g>
			<path class="st1" d="M157.5,2.7h2.4v24.8h-2.4V2.7z"/>
			<path class="st1" d="M182.3,10.8c1.3,1.3,1.9,3.1,1.9,5.3v11.4h-2.4V16.6c0-1.7-0.5-3.1-1.4-4.1c-1-1-2.3-1.5-4.1-1.5
				c-1.9,0-3.4,0.6-4.6,1.8c-1.1,1.2-1.8,2.7-2,4.7v10h-2.4V8.9h2.4v4.3c0.6-1.4,1.6-2.5,2.8-3.3s2.8-1.1,4.5-1.1
				C179.2,8.8,181,9.5,182.3,10.8z"/>
			<path class="st1" d="M197.7,11.2c-0.9-0.3-1.7-0.4-2.6-0.4c-1.2,0-2.1,0.2-2.9,0.7c-0.7,0.5-1.1,1.1-1.1,2.1
				c0,0.6,0.2,1.2,0.6,1.6s0.9,0.7,1.5,1c0.6,0.3,1.4,0.5,2.4,0.8c1.3,0.4,2.3,0.8,3.1,1.1c0.8,0.4,1.5,0.9,2.1,1.6
				c0.6,0.7,0.9,1.6,0.9,2.8c0,1.7-0.6,3-1.9,3.8c-1.3,0.9-2.9,1.3-4.8,1.3c-1.4,0-2.6-0.2-3.9-0.7c-1.3-0.5-2.3-1.1-3.2-1.9l1-1.7
				c0.8,0.7,1.8,1.3,2.9,1.7s2.2,0.6,3.4,0.6c1.3,0,2.3-0.3,3.1-0.8c0.8-0.5,1.2-1.3,1.2-2.3c0-0.7-0.2-1.3-0.6-1.7
				c-0.4-0.4-0.9-0.8-1.5-1s-1.4-0.5-2.5-0.9c-1.3-0.4-2.3-0.7-3.1-1.1c-0.8-0.4-1.4-0.9-2-1.5c-0.6-0.7-0.8-1.5-0.8-2.6
				c0-1.6,0.6-2.9,1.8-3.7s2.7-1.2,4.6-1.2c1.1,0,2.1,0.1,3.1,0.4c1,0.3,1.9,0.7,2.7,1.2l-0.9,1.8C199.4,11.8,198.6,11.4,197.7,11.2
				L197.7,11.2z"/>
			<path class="st1" d="M208.8,2.4c0.3,0.3,0.5,0.7,0.5,1.2s-0.2,0.9-0.5,1.2c-0.3,0.3-0.7,0.5-1.1,0.5c-0.5,0-0.9-0.2-1.2-0.5
				S206,4,206,3.5s0.2-0.9,0.5-1.2c0.3-0.3,0.7-0.5,1.2-0.5S208.5,2,208.8,2.4L208.8,2.4z M206.4,8.9h2.4v18.6h-2.4V8.9L206.4,8.9z"
				/>
			<path class="st1" d="M231.8,8.9v16.6c0,1.8-0.4,3.4-1.1,4.7c-0.8,1.3-1.8,2.4-3.3,3.1s-3,1.1-4.9,1.1c-2.8,0-5.3-1-7.6-2.8
				l1.1-1.7c0.9,0.8,1.9,1.5,3,1.9c1,0.4,2.2,0.6,3.4,0.6c2.1,0,3.8-0.6,5.1-1.9s1.9-2.9,1.9-5v-3c-0.7,1.3-1.6,2.3-2.8,3
				s-2.6,1.1-4.3,1.1s-3.1-0.4-4.4-1.2s-2.3-1.8-3-3.2c-0.7-1.4-1.1-2.9-1.1-4.6s0.4-3.3,1.1-4.6s1.7-2.4,3-3.2s2.8-1.1,4.4-1.1
				s3,0.4,4.2,1.1c1.2,0.7,2.1,1.7,2.8,3.1V8.9L231.8,8.9L231.8,8.9z M226.2,23.9c1-0.6,1.8-1.4,2.4-2.5s0.9-2.3,0.9-3.6
				c0-1.3-0.3-2.6-0.9-3.6c-0.6-1.1-1.4-1.9-2.4-2.5s-2.2-0.9-3.4-0.9s-2.4,0.3-3.4,0.9c-1,0.6-1.8,1.4-2.4,2.5s-0.9,2.3-0.9,3.6
				s0.3,2.5,0.9,3.6s1.4,1.9,2.4,2.5c1,0.6,2.2,0.9,3.5,0.9S225.2,24.5,226.2,23.9L226.2,23.9z"/>
			<path class="st1" d="M253.4,10.8c1.3,1.3,1.9,3.1,1.9,5.3v11.4h-2.4V16.6c0-1.7-0.5-3.1-1.5-4.1c-1-1-2.3-1.5-4-1.5
				c-2.1,0-3.7,0.7-4.8,2c-1.2,1.3-1.8,3.1-1.8,5.3v9.1h-2.4V1.2h2.4v12.1c1.2-2.9,3.7-4.4,7.4-4.5C250.4,8.8,252.1,9.5,253.4,10.8
				L253.4,10.8z"/>
			<path class="st1" d="M271,26.2c-1.3,0.9-2.6,1.3-4.1,1.4c-1.4,0-2.5-0.4-3.4-1.3c-0.8-0.9-1.2-2.2-1.2-3.9V11.3h-2.7l0-1.8h2.7
				V4.6h2.4v4.8l6,0v1.9h-6v10.7c0,2.3,0.9,3.4,2.5,3.4c1,0,2-0.3,3.1-1L271,26.2L271,26.2z"/>
			<path class="st1" d="M282.6,11.2c-0.9-0.3-1.7-0.4-2.6-0.4c-1.2,0-2.1,0.2-2.9,0.7c-0.7,0.5-1.1,1.1-1.1,2.1
				c0,0.6,0.2,1.2,0.6,1.6c0.4,0.4,0.9,0.7,1.5,1c0.6,0.3,1.4,0.5,2.4,0.8c1.3,0.4,2.3,0.8,3.1,1.1c0.8,0.4,1.5,0.9,2.1,1.6
				s0.9,1.6,0.9,2.8c0,1.7-0.6,3-1.9,3.8c-1.3,0.9-2.9,1.3-4.8,1.3c-1.4,0-2.6-0.2-3.9-0.7c-1.3-0.5-2.3-1.1-3.2-1.9l1-1.7
				c0.8,0.7,1.8,1.3,2.9,1.7c1.1,0.4,2.2,0.6,3.4,0.6c1.3,0,2.3-0.3,3.1-0.8s1.2-1.3,1.2-2.3c0-0.7-0.2-1.3-0.6-1.7s-0.9-0.8-1.5-1
				s-1.4-0.5-2.5-0.9c-1.3-0.4-2.3-0.7-3-1.1c-0.8-0.4-1.4-0.9-2-1.5c-0.5-0.7-0.8-1.5-0.8-2.6c0-1.6,0.6-2.9,1.8-3.7
				s2.7-1.2,4.6-1.2c1.1,0,2.1,0.1,3.1,0.4c1,0.3,1.9,0.7,2.7,1.2l-0.9,1.8C284.2,11.8,283.5,11.4,282.6,11.2L282.6,11.2z"/>
		</g>
	</g>
</g>
<g>
	<g>
		<g>
			<g>
				<path class="st0" d="M220.2,48.4c-0.4,0-0.7,0.1-0.9,0.3s-0.3,0.4-0.3,0.7s0.1,0.5,0.4,0.7c0.3,0.2,0.9,0.4,1.8,0.6
					c1,0.2,1.7,0.6,2.2,1.1c0.5,0.5,0.8,1.2,0.8,2.1s-0.3,1.7-1,2.2c-0.7,0.6-1.6,0.8-2.7,0.8c-1.6,0-3.1-0.6-4.3-1.8l1.4-1.7
					c1.1,1,2.1,1.4,3,1.4c0.4,0,0.7-0.1,1-0.3c0.2-0.2,0.4-0.4,0.4-0.7s-0.1-0.6-0.4-0.7c-0.3-0.2-0.8-0.4-1.5-0.5
					c-1.2-0.3-2-0.6-2.6-1.1s-0.8-1.2-0.8-2.1s0.4-1.7,1-2.2c0.7-0.5,1.6-0.8,2.6-0.8c0.7,0,1.4,0.1,2,0.3s1.3,0.6,1.8,1l-1.1,1.7
					C222,48.8,221.1,48.4,220.2,48.4"/>
				<path class="st0" d="M208.7,54.2c0.4,0.5,0.9,0.7,1.5,0.7s1.1-0.2,1.5-0.7c0.4-0.5,0.6-1.1,0.6-1.9v-5.6h2.3v5.7
					c0,1.5-0.4,2.6-1.2,3.4c-0.8,0.8-1.9,1.2-3.1,1.2s-2.3-0.4-3.1-1.2c-0.8-0.8-1.2-1.9-1.2-3.4v-5.7h2.3v5.6
					C208.1,53,208.3,53.7,208.7,54.2"/>
			</g>
			<polygon class="st0" points="201.5,48.6 201.5,56.8 199.3,56.8 199.3,48.6 196.4,48.6 196.4,46.6 204.4,46.6 204.4,48.6 			"/>
			<polygon class="st0" points="181.7,50.4 178.9,55.9 177.6,55.9 174.9,50.4 174.9,56.8 172.6,56.8 172.6,46.6 175.7,46.6 
				178.3,52.2 180.9,46.6 183.9,46.6 183.9,56.8 181.7,56.8 			"/>
			<g>
				<path class="st0" d="M168.4,51.6c0-0.9-0.3-1.7-0.9-2.3s-1.3-1-2.1-1s-1.6,0.3-2.1,1s-0.9,1.4-0.9,2.3s0.3,1.7,0.9,2.3
					c0.6,0.6,1.3,0.9,2.1,0.9s1.6-0.3,2.1-0.9S168.4,52.5,168.4,51.6 M169.2,55.4c-1,1-2.3,1.5-3.8,1.5s-2.8-0.5-3.8-1.5
					s-1.5-2.2-1.5-3.7s0.5-2.7,1.5-3.7c1-1,2.3-1.5,3.8-1.5s2.8,0.5,3.8,1.5s1.5,2.2,1.5,3.7S170.2,54.4,169.2,55.4"/>
				<path class="st0" d="M154.6,48.4c-0.4,0-0.7,0.1-0.9,0.3s-0.3,0.4-0.3,0.7s0.1,0.5,0.4,0.7c0.3,0.2,0.9,0.4,1.8,0.6
					c1,0.2,1.7,0.6,2.2,1.1c0.5,0.5,0.8,1.2,0.8,2.1s-0.3,1.7-1,2.2c-0.7,0.6-1.6,0.8-2.7,0.8c-1.6,0-3.1-0.6-4.3-1.8l1.4-1.7
					c1.1,1,2.1,1.4,3,1.4c0.4,0,0.7-0.1,1-0.3c0.2-0.2,0.4-0.4,0.4-0.7s-0.1-0.6-0.4-0.7c-0.3-0.2-0.8-0.4-1.5-0.5
					c-1.2-0.3-2-0.6-2.6-1.1s-0.8-1.2-0.8-2.1s0.4-1.7,1-2.2c0.7-0.5,1.6-0.8,2.6-0.8c0.7,0,1.4,0.1,2,0.3s1.3,0.6,1.8,1l-1.1,1.7
					C156.5,48.8,155.6,48.4,154.6,48.4"/>
			</g>
			<g>
				<polygon class="st0" points="191.3,51.3 194.3,55.6 185.2,56.9 197,56.8 191.9,49.6 				"/>
				<g>
					<defs>
						<polygon id="SVGID_1_" points="191.3,51.3 194.3,55.6 185.2,56.9 197,56.8 191.9,49.6 						"/>
					</defs>
					<clipPath id="SVGID_2_">
						<use xlink:href="#SVGID_1_"  style="overflow:visible;"/>
					</clipPath>
					<g class="st3">
						<rect x="185.2" y="49.6" class="st0" width="11.8" height="7.3"/>
					</g>
				</g>
			</g>
			<g>
				<polygon class="st0" points="185,56.4 192.6,55.3 187.3,54.8 190.8,45.7 				"/>
				<g>
					<defs>
						<polygon id="SVGID_3_" points="185,56.4 192.6,55.3 187.3,54.8 190.8,45.7 						"/>
					</defs>
					<clipPath id="SVGID_4_">
						<use xlink:href="#SVGID_3_"  style="overflow:visible;"/>
					</clipPath>
					<g class="st4">
						<rect x="185" y="45.7" class="st0" width="7.6" height="10.8"/>
					</g>
				</g>
			</g>
			<g>
				<polygon class="st0" points="188,54.3 189.6,54.6 191.7,48.5 197.5,56.6 191.4,45.6 				"/>
				<g>
					<defs>
						<polygon id="SVGID_5_" points="188,54.3 189.6,54.6 191.7,48.5 197.5,56.6 191.4,45.6 						"/>
					</defs>
					<clipPath id="SVGID_6_">
						<use xlink:href="#SVGID_5_"  style="overflow:visible;"/>
					</clipPath>
					<g class="st5">
						<rect x="188" y="45.6" class="st0" width="9.4" height="10.9"/>
					</g>
				</g>
			</g>
		</g>
		<path class="st0" d="M225.7,55.6c0.3,0,0.5,0.2,0.5,0.6s-0.2,0.6-0.5,0.6s-0.5-0.2-0.5-0.6S225.4,55.6,225.7,55.6z M225.7,56.6
			c0.2,0,0.4-0.2,0.4-0.4s-0.2-0.4-0.4-0.4s-0.4,0.2-0.4,0.4S225.4,56.6,225.7,56.6z M225.5,55.8h0.2c0.1,0,0.2,0.1,0.2,0.2
			c0,0.1-0.1,0.1-0.1,0.2l0,0c0,0,0,0,0,0l0.1,0.2h-0.1l-0.1-0.2h-0.1v0.2h-0.1L225.5,55.8L225.5,55.8z M225.7,56.1
			C225.8,56.1,225.8,56.1,225.7,56.1c0.1-0.2,0.1-0.2,0-0.2h-0.1L225.7,56.1C225.6,56.1,225.7,56.1,225.7,56.1z"/>
	</g>
</g>
</svg>
